<svg preserveAspectRatio="none" width="100%" height="100%" overflow="visible" style="display: block;" viewBox="0 0 37 37" fill="none" xmlns="http://www.w3.org/2000/svg">
<g id="FileArrowDown" clip-path="url(#clip0_0_12)">
<g id="Vector">
</g>
<path id="Vector_2" d="M30.8805 11.9007L22.7868 3.80695C22.6793 3.69961 22.5518 3.6145 22.4114 3.55647C22.2711 3.49844 22.1206 3.46863 21.9688 3.46875H8.09375C7.48044 3.46875 6.89224 3.71239 6.45857 4.14607C6.02489 4.57974 5.78125 5.16794 5.78125 5.78125V31.2187C5.78125 31.8321 6.02489 32.4203 6.45857 32.8539C6.89224 33.2876 7.48044 33.5312 8.09375 33.5312H28.9062C29.5196 33.5312 30.1078 33.2876 30.5414 32.8539C30.9751 32.4203 31.2188 31.8321 31.2188 31.2187V12.7187C31.2189 12.5669 31.1891 12.4164 31.131 12.2761C31.073 12.1357 30.9879 12.0082 30.8805 11.9007ZM22.7868 23.943L19.318 27.4118C19.2107 27.5193 19.0831 27.6046 18.9428 27.6628C18.8024 27.721 18.6519 27.7509 18.5 27.7509C18.3481 27.7509 18.1976 27.721 18.0572 27.6628C17.9169 27.6046 17.7893 27.5193 17.682 27.4118L14.2132 23.943C13.9962 23.7261 13.8744 23.4318 13.8744 23.125C13.8744 22.8182 13.9962 22.5239 14.2132 22.307C14.4302 22.09 14.7244 21.9681 15.0312 21.9681C15.3381 21.9681 15.6323 22.09 15.8493 22.307L17.3438 23.8029V17.3437C17.3438 17.0371 17.4656 16.743 17.6824 16.5262C17.8992 16.3093 18.1933 16.1875 18.5 16.1875C18.8067 16.1875 19.1008 16.3093 19.3176 16.5262C19.5344 16.743 19.6562 17.0371 19.6562 17.3437V23.8029L21.1507 22.307C21.3677 22.09 21.6619 21.9681 21.9688 21.9681C22.2756 21.9681 22.5698 22.09 22.7868 22.307C23.0038 22.5239 23.1256 22.8182 23.1256 23.125C23.1256 23.4318 23.0038 23.7261 22.7868 23.943ZM21.9688 12.7187V6.35937L28.3281 12.7187H21.9688Z" fill="var(--fill-0, black)"/>
</g>
<defs>
<clipPath id="clip0_0_12">
<rect width="37" height="37" fill="white"/>
</clipPath>
</defs>
</svg>
